<?xml version="1.0" encoding="UTF-8"?>
<svg version="1.1" xmlns="http://www.w3.org/2000/svg" width="315" height="315">
<path d="M0 0 C0.92039062 0.66773438 1.84078125 1.33546875 2.7890625 2.0234375 C6.74339123 4.45761066 10.23282623 5.08654269 14.75 5.875 C24.31034558 7.77197842 32.78767461 11.13105451 39 19 C39 20.32 39 21.64 39 23 C34.68559606 24.00155806 30.37433373 24.94330818 26.015625 25.73046875 C25.31373047 25.85768311 24.61183594 25.98489746 23.88867188 26.1159668 C22.48453803 26.36810179 21.07959998 26.6158064 19.67382812 26.85864258 C14.12669659 27.82171194 14.12669659 27.82171194 9 30 C0.39193554 42.45546122 -0.96536025 58.12803606 1.67578125 72.73828125 C2.21082281 74.89619768 2.75705974 77.05138053 3.31640625 79.203125 C7.69896263 97.13404139 -3.60503277 116.7418933 -11.83007812 131.97216797 C-16.35139514 140.44212411 -20.29621014 149.17809409 -24.18188477 157.95361328 C-30.08050237 171.00385024 -37.97255403 184.35490326 -49.23828125 193.46875 C-52.51489819 196.31671861 -55.22547519 199.67333094 -58 203 C-58.763125 203.886875 -59.52625 204.77375 -60.3125 205.6875 C-62.88926837 209.21862702 -64.03020466 211.61769241 -63.93359375 216.0390625 C-63.07652668 221.41450854 -59.7567336 225.59187853 -56.75 230 C-55.88955078 231.29550781 -55.88955078 231.29550781 -55.01171875 232.6171875 C-53.36055989 235.0920452 -51.68719774 237.5496011 -50 240 C-49.51958252 240.69955811 -49.03916504 241.39911621 -48.54418945 242.11987305 C-46.28086748 245.35993992 -44.23086257 247.72643004 -41 250 C-41 250.66 -41 251.32 -41 252 C-39.9275 252.12375 -38.855 252.2475 -37.75 252.375 C-34.62136385 252.89643936 -32.66519576 253.40088254 -30 255 C-30 255.66 -30 256.32 -30 257 C-29.505 256.67 -29.01 256.34 -28.5 256 C-24.9818753 254.59275012 -21.7435926 254.47068055 -18 255 C-15.5 256.5 -15.5 256.5 -14 258 C-14.33 259.32 -14.66 260.64 -15 262 C-16.65 261.67 -18.3 261.34 -20 261 C-20.33 261.99 -20.66 262.98 -21 264 C-27.43019709 267.21509855 -39.0357945 265.21415425 -46 264 C-46.60239502 263.66025146 -47.20479004 263.32050293 -47.82543945 262.97045898 C-50.494552 261.77929222 -52.26196742 261.86775734 -55.16796875 262.05859375 C-56.14314453 262.11466797 -57.11832031 262.17074219 -58.12304688 262.22851562 C-59.13431641 262.29748047 -60.14558594 262.36644531 -61.1875 262.4375 C-63.2015428 262.5656779 -65.21586154 262.68961562 -67.23046875 262.80859375 C-68.56694458 262.89838501 -68.56694458 262.89838501 -69.93041992 262.98999023 C-70.61338135 262.99329346 -71.29634277 262.99659668 -72 263 C-72.33 262.67 -72.66 262.34 -73 262 C-75.54756104 261.71693766 -78.09510022 261.55184214 -80.65234375 261.37890625 C-83 261 -83 261 -85 259 C-87.23457688 258.81555409 -87.23457688 258.81555409 -89.7890625 259.0234375 C-91.20058594 259.10078125 -91.20058594 259.10078125 -92.640625 259.1796875 C-93.62546875 259.24414062 -94.6103125 259.30859375 -95.625 259.375 C-96.61757812 259.43171875 -97.61015625 259.4884375 -98.6328125 259.546875 C-101.08924767 259.68859241 -103.54469735 259.84002277 -106 260 C-106.33 258.35 -106.66 256.7 -107 255 C-107.99 255 -108.98 255 -110 255 C-110.66 256.32 -111.32 257.64 -112 259 C-113.32 259 -114.64 259 -116 259 C-116 255.95803813 -115.82450287 253.82681889 -113.609375 251.60546875 C-110.07613152 249.3860574 -107.76257984 248.90511278 -103.578125 249.42578125 C-100.33988068 250.17170871 -97.17256018 251.01341116 -94 252 C-96.25585932 244.93385242 -99.81844255 239.3423921 -104 233.25 C-104.6290625 232.31800781 -105.258125 231.38601563 -105.90625 230.42578125 C-107.58973685 227.93978478 -109.27846281 225.4597954 -111 223 C-111.77283325 221.8857666 -111.77283325 221.8857666 -112.5612793 220.74902344 C-114.48900002 218.40553264 -115.84544107 218.36461554 -118.8125 218 C-125.57286015 217.16150572 -129.70391834 213.7317727 -133.88671875 208.48046875 C-134.29535156 207.95066406 -134.70398438 207.42085937 -135.125 206.875 C-138.77884044 201.96088118 -138.77884044 201.96088118 -144 199 C-146.01193023 199.25149128 -148.01043215 199.60919203 -150 200 C-152.99795806 200.27591098 -155.99738967 200.49980966 -159 200.71875 C-170.82131531 201.82699831 -178.51664561 208.71860448 -187.4375 216 C-198.69930102 225.14878562 -210.6106759 231.51985629 -224 237 C-224.80179688 237.37253906 -225.60359375 237.74507812 -226.4296875 238.12890625 C-230.10392666 239.37412712 -233.77702538 239.6849257 -237.625 240.0625 C-243.39231683 240.60681437 -243.39231683 240.60681437 -249 242 C-250.72795352 242.06802967 -252.45835365 242.08495645 -254.1875 242.0625 C-255.08855469 242.05347656 -255.98960937 242.04445313 -256.91796875 242.03515625 C-257.94857422 242.01775391 -257.94857422 242.01775391 -259 242 C-259.33 241.01 -259.66 240.02 -260 239 C-261.11375 238.9175 -262.2275 238.835 -263.375 238.75 C-265.169375 238.37875 -265.169375 238.37875 -267 238 C-268.2265625 235.953125 -268.2265625 235.953125 -269 234 C-257.60329126 223.58793338 -257.60329126 223.58793338 -251.8515625 218.60546875 C-250.56759166 217.49215226 -249.29208288 216.3690304 -248.0234375 215.23828125 C-247.08371094 214.40876953 -247.08371094 214.40876953 -246.125 213.5625 C-245.29355469 212.82193359 -245.29355469 212.82193359 -244.4453125 212.06640625 C-243 211 -243 211 -241 211 C-240.690625 210.195625 -240.690625 210.195625 -240.375 209.375 C-238.46749574 206.08021991 -235.95180616 203.40636372 -233 201 C-232.34 201 -231.68 201 -231 201 C-231 200.34 -231 199.68 -231 199 C-229.33784732 197.66104368 -227.67036393 196.32869858 -226 195 C-225.42378906 194.23945313 -224.84757812 193.47890625 -224.25390625 192.6953125 C-221.55272777 189.46513372 -218.5486764 187.18896515 -215.1875 184.6875 C-210.44902853 181.07248324 -206.33909185 177.49659496 -202.58203125 172.8359375 C-200.81215983 170.78201265 -198.89014223 169.11459806 -196.8125 167.375 C-193.44879714 164.53381409 -191.21945228 161.79156432 -189 158 C-189.66 158 -190.32 158 -191 158 C-189.15589645 145.09127517 -173.50413859 134.00348513 -164 126 C-162.96596928 125.12520865 -161.93213106 124.25018973 -160.8984375 123.375 C-159.19517587 121.93368348 -157.49152282 120.49284308 -155.78662109 119.0534668 C-152.12167832 115.95773711 -148.47629186 112.84336259 -144.88671875 109.66015625 C-143.55012724 108.48406641 -142.19670987 107.32697314 -140.83203125 106.18359375 C-135.64593589 101.76514762 -131.42555814 96.99887863 -127.1875 91.671875 C-117.37402287 79.68541365 -104.65289965 69.97730289 -92.125 61 C-91.53170898 60.57412598 -90.93841797 60.14825195 -90.32714844 59.70947266 C-86.51418564 57.00058962 -82.60606913 54.52050859 -78.625 52.0625 C-68.04037816 45.04366954 -63.22875814 34.30106587 -58.76171875 22.81640625 C-56.52079309 17.14818252 -54.818111 12.94209081 -50 9 C-49.30519531 8.35289063 -48.61039063 7.70578125 -47.89453125 7.0390625 C-34.56925088 -5.32644056 -16.50882683 -7.88917389 0 0 Z M-90 199 C-90 199.66 -90 200.32 -90 201 C-90.70125 201.226875 -91.4025 201.45375 -92.125 201.6875 C-96.09212838 203.49858035 -99.9989082 205.9978164 -102 210 C-102.59389791 215.56044148 -102.59389791 215.56044148 -100.3125 220.375 C-99.549375 221.24125 -98.78625 222.1075 -98 223 C-97.21773811 224.52554988 -96.47138684 226.06973888 -95.75 227.625 C-91.25155947 236.84198824 -85.7058817 244.45989347 -77 250 C-76.01 250.66 -75.02 251.32 -74 252 C-70.93904537 252.49959186 -70.93904537 252.49959186 -67.5625 252.6875 C-66.42941406 252.77386719 -65.29632813 252.86023438 -64.12890625 252.94921875 C-61.45807167 252.99256563 -59.51338846 252.82132842 -57 252 C-57.50108656 246.87952168 -59.31994137 243.16868892 -62 238.875 C-62.40009277 238.22192871 -62.80018555 237.56885742 -63.21240234 236.89599609 C-67.10743071 230.63988288 -71.44911904 224.79656005 -76 219 C-76.99773437 217.71222656 -76.99773437 217.71222656 -78.015625 216.3984375 C-79.17068403 214.90850842 -80.32894835 213.42105138 -81.4921875 211.9375 C-81.98976562 211.298125 -82.48734375 210.65875 -83 210 C-83.80244141 209.00226563 -83.80244141 209.00226563 -84.62109375 207.984375 C-86.55767573 205.19745249 -87.18368015 202.26527941 -88 199 C-88.66 199 -89.32 199 -90 199 Z " fill="#000000" transform="translate(274,25)"/>
</svg>
